<svg xmlns="http://www.w3.org/2000/svg" width="100" height="100" viewBox="0 0 100 100">
  <rect width="100" height="100" fill="transparent"/>
  <circle cx="50" cy="50" r="35" fill="#1B2838"/>
  <path fill="#FFFFFF" d="M50,15 A35,35 0 0 1 85,50 A35,35 0 0 1 50,85 A35,35 0 0 1 32,80 L42,70 A20,20 0 0 0 70,42 A20,20 0 0 0 50,22 A20,20 0 0 0 30,42 A20,20 0 0 0 42,61 L32,71 A35,35 0 0 1 15,50 A35,35 0 0 1 50,15 Z" />
  <circle cx="50" cy="42" r="10" fill="#1B2838"/>
  <circle cx="50" cy="42" r="7" fill="#FFFFFF"/>
</svg> 