<svg xmlns="http://www.w3.org/2000/svg" width="100" height="100" viewBox="0 0 100 100">
  <rect width="100" height="100" fill="transparent"/>
  <circle cx="50" cy="50" r="35" fill="#003087"/>
  <path fill="#FFFFFF" d="M25,40 L25,65 L35,70 L35,45 C35,43 36,42 38,43 C40,44 40,46 40,48 L40,70 L50,75 L50,40 C50,38 49,35 45,33 C40,30 30,33 25,40 Z"/>
  <path fill="#FFFFFF" d="M75,40 L55,33 L55,40 L67,45 C69,46 70,47 68,48 C66,49 64,48 62,47 L55,44 L55,51 L62,54 C65,55 68,56 72,54 C76,52 76,48 75,46 L75,40 Z"/>
  <path fill="#FFFFFF" d="M52,60 L52,70 C52,73 50,75 46,77 C42,79 38,78 38,75 C38,72 42,69 46,67 C48,66 50,65 52,64 L52,60 Z"/>
</svg> 