<svg xmlns="http://www.w3.org/2000/svg" width="100" height="100" viewBox="0 0 100 100">
  <rect width="100" height="100" fill="transparent"/>
  <circle cx="50" cy="50" r="35" fill="#107C10"/>
  <path fill="#FFFFFF" d="M50,25 C43,25 37,28 32,33 C38,27 50,38 65,53 C80,68 73,80 67,86 C72,81 75,75 75,68 C75,60 72,54 67,48 C62,42 54,38 51,35 C48,32 48,32 50,30 C52,32 52,32 55,35 C58,38 66,42 71,48 C76,54 79,60 79,68 C79,75 76,81 71,86 C77,80 70,68 55,53 C40,38 28,27 34,33 C39,28 45,25 52,25 C50,25 50,25 50,25 Z"/>
</svg> 